<?xml version="1.0" encoding="utf-8"?>
<!-- Generator: Adobe Illustrator 25.2.0, SVG Export Plug-In . SVG Version: 6.00 Build 0)  -->
<svg version="1.1" id="Layer_1" xmlns="http://www.w3.org/2000/svg" xmlns:xlink="http://www.w3.org/1999/xlink" x="0px" y="0px"
	 viewBox="0 0 68.62 58.29" style="enable-background:new 0 0 68.62 58.29;" xml:space="preserve">
<style type="text/css">
	.st0{fill:#BC202E;}
</style>
<g>
	<g>
		<path class="st0" d="M34.52,7.91h-5.42h-9.32v28.67v13.81c5.56,0,9.32-4.51,9.32-10.07v-3.73V20.65l4.39-8.01l4.39,8.01v15.52
			c6.3-1.51,10.98-7.17,10.98-13.93v0C48.85,14.33,42.43,7.91,34.52,7.91z"/>
	</g>
	<g>
		<g>
			<path class="st0" d="M33.49,22.19l-0.41-0.56c-0.45-0.63-1.25-0.76-1.68-0.79c-0.83-0.04-1.69,0.22-2.08,0.65l-0.34,0.37
				l-0.74-0.67l0.34-0.37c0.6-0.66,1.72-1.04,2.87-0.98c0.82,0.05,1.52,0.31,2.03,0.76c0.52-0.45,1.22-0.71,2.03-0.76
				c1.15-0.06,2.28,0.32,2.87,0.98l0.34,0.37l-0.74,0.67l-0.34-0.37c-0.39-0.43-1.24-0.69-2.08-0.65c-0.43,0.02-1.23,0.16-1.68,0.79
				L33.49,22.19z"/>
		</g>
	</g>
	<g>
		<g>
			<rect x="32.98" y="21.34" class="st0" width="1" height="16.21"/>
		</g>
	</g>
</g>
</svg>
