<?xml version="1.0" encoding="utf-8"?>
<!-- Generator: Adobe Illustrator 25.2.0, SVG Export Plug-In . SVG Version: 6.00 Build 0)  -->
<svg version="1.1" id="Layer_1" xmlns="http://www.w3.org/2000/svg" xmlns:xlink="http://www.w3.org/1999/xlink" x="0px" y="0px"
	 viewBox="0 0 420.94 145.87" style="enable-background:new 0 0 420.94 145.87;" xml:space="preserve">
<style type="text/css">
	.st0{fill:#404041;}
	.st1{fill:#BE1E2D;}
</style>
<g>
	<g>
		<path class="st0" d="M28.13,43.55h12.81l10.44,16.94l10.44-16.94h12.81V87.3H62.57V62.17L51.38,79.3h-0.25L40,62.3v25H28.13V43.55
			z"/>
		<path class="st0" d="M80.87,65.55v-0.13c0-12.56,10.12-22.75,23.62-22.75s23.5,10.06,23.5,22.62v0.12
			c0,12.56-10.12,22.75-23.62,22.75S80.87,78.11,80.87,65.55z M115.62,65.55v-0.13c0-6.31-4.56-11.81-11.25-11.81
			c-6.62,0-11.06,5.38-11.06,11.69v0.12c0,6.31,4.56,11.81,11.19,11.81C111.18,77.24,115.62,71.86,115.62,65.55z"/>
		<path class="st0" d="M134.3,43.55h11.31l18,23.12V43.55h12V87.3h-10.62l-18.69-24v24h-12V43.55z"/>
		<path class="st0" d="M198.47,43.24h11.69l18.62,44.06h-13l-3.19-7.81h-16.87l-3.12,7.81h-12.75L198.47,43.24z M209.1,70.05
			l-4.87-12.44l-4.94,12.44H209.1z"/>
		<path class="st1" d="M302.26,43.55h20.69c6.69,0,11.31,1.75,14.25,4.75c2.56,2.5,3.88,5.88,3.88,10.19v0.12
			c0,6.69-3.56,11.12-9,13.44l10.44,15.25h-14l-8.81-13.25h-5.31V87.3h-12.12V43.55z M322.39,64.55c4.13,0,6.5-2,6.5-5.19v-0.12
			c0-3.44-2.5-5.19-6.56-5.19h-7.94v10.5H322.39z"/>
		<path class="st1" d="M345.69,65.55v-0.13c0-12.56,10.12-22.75,23.62-22.75c13.5,0,23.5,10.06,23.5,22.62v0.12
			c0,12.56-10.12,22.75-23.62,22.75S345.69,78.11,345.69,65.55z M380.44,65.55v-0.13c0-6.31-4.56-11.81-11.25-11.81
			c-6.62,0-11.06,5.38-11.06,11.69v0.12c0,6.31,4.56,11.81,11.19,11.81C376,77.24,380.44,71.86,380.44,65.55z"/>
	</g>
	<g>
		<g>
			<path class="st1" d="M265.34,29.48h-11.1h-19.07v58.65v28.25c11.38,0,19.07-9.23,19.07-20.61v-7.64V55.56l8.98-16.4l8.98,16.4
				v31.76c12.88-3.09,22.46-14.68,22.46-28.51v0C294.66,42.61,281.53,29.48,265.34,29.48z"/>
		</g>
		<g>
			<g>
				<path class="st1" d="M263.22,58.71l-0.83-1.15c-0.93-1.29-2.56-1.56-3.44-1.61c-1.7-0.09-3.45,0.45-4.25,1.33l-0.69,0.76
					l-1.52-1.38l0.69-0.76c1.22-1.34,3.52-2.13,5.88-2c1.67,0.09,3.1,0.64,4.16,1.55c1.05-0.92,2.49-1.46,4.16-1.55
					c2.35-0.13,4.66,0.65,5.88,2l0.69,0.76l-1.52,1.38l-0.69-0.76c-0.8-0.88-2.54-1.42-4.25-1.33c-0.89,0.05-2.51,0.33-3.44,1.61
					L263.22,58.71z"/>
			</g>
		</g>
		<g>
			<g>
				<rect x="262.2" y="56.96" class="st1" width="2.05" height="33.16"/>
			</g>
		</g>
	</g>
</g>
</svg>
